<svg xmlns="http://www.w3.org/2000/svg" viewBox="0 0 64 64">
  <path fill="#25D366" d="M32 2C15.5 2 2.1 15.4 2.1 31.9c0 5.8 1.7 11.3 4.6 16.1L3 62l14.5-3.6c4.4 2.4 9.4 3.7 14.5 3.7 16.5 0 29.9-13.4 29.9-29.9C61.9 15.4 48.5 2 32 2z"></path>
  <path fill="#FFFFFF" d="M48.2 37.6c-.9-.5-5.3-2.6-6.1-2.9-.8-.3-1.4-.5-2 .5-.6.9-2.3 2.9-2.8 3.5-.5.6-1 .7-1.9.2-.9-.5-3.7-1.4-7.1-4.4-2.6-2.3-4.4-5.1-4.9-6-.5-.9-.1-1.4.4-1.9.4-.4.9-1 .1-1.7.6-.7.9-1.2 1.3-2 .4-.8.2-1.5-.1-2.1-.3-.5-2-4.9-2.8-6.7-.8-1.8-1.6-1.5-2.2-1.5h-1.9c-.7 0-1.7.3-2.6 1.3-.9 1-3.4 3.3-3.4 8.1s3.5 9.4 4 10.1c.5.7 6.9 10.5 16.8 14.8 2.3 1 4.1 1.6 5.5 2 2.3.7 4.5.6 6.2.4 1.9-.3 5.3-2.2 6.1-4.3.8-2.1.8-3.9.6-4.3-.3-.5-.8-.7-1.7-1.1z"></path>
</svg>